<svg width="36" height="35" viewBox="0 0 36 35" fill="none" xmlns="http://www.w3.org/2000/svg">
<path d="M25.1094 16.2424C26.358 15.1968 27.152 13.6263 27.152 11.8703C27.152 10.1144 26.358 8.54392 25.1094 7.49832C25.2525 7.42902 25.3902 7.35382 25.5214 7.27232C26.3496 6.75736 27.3271 6.45996 28.3741 6.45996C31.3622 6.45996 33.7845 8.88232 33.7845 11.8703C33.7845 14.8584 31.3622 17.2807 28.3741 17.2807C27.3271 17.2807 26.3496 16.9833 25.5214 16.4684C25.3902 16.3869 25.2525 16.3117 25.1094 16.2424Z" fill="url(#paint0_linear_9572_77944)"/>
<path d="M23.6065 12.722C24.165 11.1922 24.0674 9.43513 23.1894 7.91443C22.3114 6.39373 20.8385 5.43064 19.2344 5.14943C19.3237 5.0179 19.4053 4.88391 19.4781 4.74773C19.9379 3.88768 20.6358 3.14135 21.5425 2.61785C24.1303 1.12381 27.4393 2.01044 28.9333 4.59819C30.4273 7.18595 29.5407 10.4949 26.9529 11.9889C26.0462 12.5124 25.0509 12.7436 24.0762 12.7118C23.9219 12.7067 23.765 12.7105 23.6065 12.722Z" fill="url(#paint1_linear_9572_77944)"/>
<path d="M20.5443 10.4246C20.2631 8.82053 19.3 7.34763 17.7793 6.46965C16.2586 5.59167 14.5015 5.49407 12.9717 6.05258C12.9833 5.89404 12.987 5.73717 12.9819 5.58285C12.9501 4.60812 13.1813 3.61284 13.7048 2.7061C15.1989 0.118349 18.5078 -0.768281 21.0956 0.725759C23.6833 2.2198 24.57 5.52875 23.0759 8.11653C22.5524 9.02323 21.8061 9.72113 20.946 10.1809C20.8099 10.2537 20.6759 10.3353 20.5443 10.4246Z" fill="url(#paint2_linear_9572_77944)"/>
<path d="M16.7444 9.96602C15.6988 8.71742 14.1283 7.92342 12.3723 7.92342C10.6163 7.92342 9.04585 8.71742 8.00026 9.96602C7.931 9.82292 7.85578 9.68522 7.77425 9.55402C7.25931 8.72582 6.96191 7.74832 6.96191 6.7013C6.96191 3.71321 9.38423 1.29089 12.3723 1.29089C15.3604 1.29089 17.7827 3.71321 17.7827 6.7013C17.7827 7.74832 17.4853 8.72582 16.9704 9.55402C16.8888 9.68522 16.8136 9.82292 16.7444 9.96602Z" fill="url(#paint3_linear_9572_77944)"/>
<path d="M13.2236 11.4688C11.6938 10.9103 9.93662 11.0079 8.41591 11.8858C6.8952 12.7638 5.93211 14.2367 5.65091 15.8408C5.51938 15.7515 5.38538 15.6699 5.2492 15.5971C4.38915 15.1373 3.64282 14.4394 3.11932 13.5327C1.62527 10.9449 2.5119 7.63596 5.09966 6.1419C7.68742 4.64785 10.9964 5.53448 12.4905 8.12226C13.014 9.02896 13.2452 10.0243 13.2133 10.999C13.2083 11.1533 13.212 11.3102 13.2236 11.4688Z" fill="url(#paint4_linear_9572_77944)"/>
<path d="M10.9247 14.5308C9.32056 14.812 7.84767 15.7751 6.96969 17.2958C6.09171 18.8165 5.99411 20.5736 6.55263 22.1034C6.39407 22.0918 6.23718 22.0881 6.08284 22.0931C5.10812 22.125 4.11284 21.8938 3.20611 21.3703C0.618349 19.8762 -0.268282 16.5673 1.22576 13.9795C2.7198 11.3918 6.02875 10.5051 8.61651 11.9992C9.52324 12.5227 10.2211 13.269 10.6809 14.129C10.7537 14.2652 10.8354 14.3992 10.9247 14.5308Z" fill="url(#paint5_linear_9572_77944)"/>
<path d="M10.4651 18.3316C9.21655 19.3772 8.42252 20.9477 8.42252 22.7036C8.42252 24.4596 9.21655 26.0301 10.4651 27.0757C10.3221 27.1449 10.1843 27.2202 10.0532 27.3017C9.22499 27.8166 8.24745 28.114 7.20044 28.114C4.21236 28.114 1.79004 25.6917 1.79004 22.7036C1.79004 19.7155 4.21236 17.2932 7.20044 17.2932C8.24745 17.2932 9.22499 17.5906 10.0532 18.1056C10.1843 18.1871 10.3221 18.2623 10.4651 18.3316Z" fill="url(#paint6_linear_9572_77944)"/>
<path d="M11.9677 21.8528C11.4091 23.3826 11.5067 25.1397 12.3847 26.6604C13.2627 28.1812 14.7356 29.1442 16.3397 29.4254C16.2504 29.557 16.1688 29.691 16.096 29.8272C15.6362 30.6872 14.9383 31.4335 14.0316 31.957C11.4438 33.4511 8.13484 32.5644 6.6408 29.9767C5.14675 27.3889 6.03339 24.08 8.62114 22.5859C9.52788 22.0624 10.5232 21.8312 11.4979 21.8631C11.6522 21.8681 11.8091 21.8644 11.9677 21.8528Z" fill="url(#paint7_linear_9572_77944)"/>
<path d="M15.0298 24.1511C15.311 25.7552 16.2741 27.2281 17.7948 28.106C19.3155 28.984 21.0727 29.0816 22.6025 28.5231C22.5909 28.6817 22.5872 28.8385 22.5922 28.9929C22.6241 29.9676 22.3929 30.9629 21.8694 31.8696C20.3753 34.4574 17.0664 35.344 14.4786 33.8499C11.8908 32.3559 11.0042 29.047 12.4983 26.4592C13.0218 25.5525 13.7681 24.8546 14.6281 24.3948C14.7643 24.322 14.8983 24.2403 15.0298 24.1511Z" fill="url(#paint8_linear_9572_77944)"/>
<path d="M18.8303 24.6107C19.8759 25.8593 21.4464 26.6533 23.2024 26.6533C24.9584 26.6533 26.5289 25.8593 27.5745 24.6107C27.6437 24.7538 27.7189 24.8915 27.8005 25.0226C28.3154 25.8508 28.6128 26.8284 28.6128 27.8754C28.6128 30.8635 26.1905 33.2858 23.2024 33.2858C20.2143 33.2858 17.792 30.8635 17.792 27.8754C17.792 26.8284 18.0894 25.8508 18.6043 25.0226C18.6859 24.8915 18.7611 24.7538 18.8303 24.6107Z" fill="url(#paint9_linear_9572_77944)"/>
<path d="M22.3516 23.1084C23.8814 23.6669 25.6385 23.5694 27.1592 22.6915C28.6799 21.8135 29.643 20.3406 29.9242 18.7365C30.0557 18.8257 30.1897 18.9074 30.3259 18.9802C31.186 19.44 31.9323 20.1378 32.4558 21.0445C33.9499 23.6323 33.0632 26.9413 30.4755 28.4354C27.8877 29.9293 24.5788 29.0428 23.0847 26.455C22.5612 25.5483 22.33 24.5529 22.3618 23.5782C22.3669 23.4239 22.3632 23.267 22.3516 23.1084Z" fill="url(#paint10_linear_9572_77944)"/>
<path d="M28.6076 17.2758C28.6065 17.2777 28.6054 17.2796 28.6043 17.2815C27.7264 18.8022 26.2535 19.7653 24.6494 20.0465C24.7386 20.1781 24.8203 20.3121 24.8931 20.4482C25.3529 21.3083 26.0508 22.0546 26.9575 22.5781C29.5453 24.0722 32.8542 23.1855 34.3483 20.5978C35.6291 18.3792 35.1602 15.6306 33.3697 13.95C32.5831 15.8377 30.7578 17.1842 28.6076 17.2758Z" fill="url(#paint11_linear_9572_77944)"/>
<defs>
<linearGradient id="paint0_linear_9572_77944" x1="25.7868" y1="6.45996" x2="25.7868" y2="17.2807" gradientUnits="userSpaceOnUse">
<stop stop-color="#25136D"/>
<stop offset="1" stop-color="#3D9BA2"/>
</linearGradient>
<linearGradient id="paint1_linear_9572_77944" x1="19.3019" y1="3.91148" x2="24.7123" y2="13.2826" gradientUnits="userSpaceOnUse">
<stop stop-color="#25136D"/>
<stop offset="1" stop-color="#3D9BA2"/>
</linearGradient>
<linearGradient id="paint2_linear_9572_77944" x1="12.4112" y1="4.94675" x2="21.7823" y2="10.3571" gradientUnits="userSpaceOnUse">
<stop stop-color="#25136D"/>
<stop offset="1" stop-color="#3D9BA2"/>
</linearGradient>
<linearGradient id="paint3_linear_9572_77944" x1="6.96191" y1="9.28852" x2="17.7827" y2="9.28852" gradientUnits="userSpaceOnUse">
<stop stop-color="#25136D"/>
<stop offset="1" stop-color="#3D9BA2"/>
</linearGradient>
<linearGradient id="paint4_linear_9572_77944" x1="4.41296" y1="15.7733" x2="13.7841" y2="10.3629" gradientUnits="userSpaceOnUse">
<stop stop-color="#25136D"/>
<stop offset="1" stop-color="#3D9BA2"/>
</linearGradient>
<linearGradient id="paint5_linear_9572_77944" x1="5.44677" y1="22.6639" x2="10.8572" y2="13.2928" gradientUnits="userSpaceOnUse">
<stop stop-color="#25136D"/>
<stop offset="1" stop-color="#3D9BA2"/>
</linearGradient>
<linearGradient id="paint6_linear_9572_77944" x1="9.78772" y1="28.114" x2="9.78772" y2="17.2932" gradientUnits="userSpaceOnUse">
<stop stop-color="#25136D"/>
<stop offset="1" stop-color="#3D9BA2"/>
</linearGradient>
<linearGradient id="paint7_linear_9572_77944" x1="16.2722" y1="30.6634" x2="10.8618" y2="21.2923" gradientUnits="userSpaceOnUse">
<stop stop-color="#25136D"/>
<stop offset="1" stop-color="#3D9BA2"/>
</linearGradient>
<linearGradient id="paint8_linear_9572_77944" x1="23.163" y1="29.629" x2="13.7919" y2="24.2185" gradientUnits="userSpaceOnUse">
<stop stop-color="#25136D"/>
<stop offset="1" stop-color="#3D9BA2"/>
</linearGradient>
<linearGradient id="paint9_linear_9572_77944" x1="28.6128" y1="25.2881" x2="17.792" y2="25.2881" gradientUnits="userSpaceOnUse">
<stop stop-color="#25136D"/>
<stop offset="1" stop-color="#3D9BA2"/>
</linearGradient>
<linearGradient id="paint10_linear_9572_77944" x1="31.1622" y1="18.804" x2="21.7911" y2="24.2144" gradientUnits="userSpaceOnUse">
<stop stop-color="#25136D"/>
<stop offset="1" stop-color="#3D9BA2"/>
</linearGradient>
<linearGradient id="paint11_linear_9572_77944" x1="30.1273" y1="11.9134" x2="24.7169" y2="21.2845" gradientUnits="userSpaceOnUse">
<stop stop-color="#25136D"/>
<stop offset="1" stop-color="#3D9BA2"/>
</linearGradient>
</defs>
</svg>
