<svg width="109" height="23" viewBox="0 0 109 23" fill="none" xmlns="http://www.w3.org/2000/svg">
<path d="M4.19229 0.28388V16.4429H0.611084V0.28388H4.19229ZM1.17879 16.4429L1.24429 13.2766H10.5248V16.4429H1.17879ZM11.0853 10.9619C11.0853 9.81187 11.3255 8.80737 11.8059 7.94847C12.2863 7.07497 12.9632 6.39807 13.8367 5.91767C14.7101 5.43727 15.7291 5.19707 16.8938 5.19707C18.0584 5.19707 19.0701 5.43727 19.929 5.91767C20.8025 6.39807 21.4794 7.07497 21.9598 7.94847C22.4402 8.80737 22.6804 9.81187 22.6804 10.9619C22.6804 12.112 22.4402 13.1165 21.9598 13.9754C21.4794 14.8343 20.8025 15.5039 19.929 15.9843C19.0701 16.4647 18.0584 16.7049 16.8938 16.7049C15.7291 16.7049 14.7101 16.4647 13.8367 15.9843C12.9632 15.5039 12.2863 14.8343 11.8059 13.9754C11.3255 13.1165 11.0853 12.112 11.0853 10.9619ZM14.4699 10.9401C14.4699 11.4933 14.5718 11.981 14.7756 12.4032C14.9794 12.8108 15.2633 13.131 15.6272 13.364C15.9912 13.5823 16.4134 13.6915 16.8938 13.6915C17.3742 13.6915 17.7963 13.5823 18.1603 13.364C18.5242 13.131 18.8008 12.8108 18.9901 12.4032C19.1939 11.981 19.2958 11.4933 19.2958 10.9401C19.2958 10.3869 19.1939 9.90647 18.9901 9.49887C18.8008 9.09127 18.5242 8.77827 18.1603 8.55987C17.7963 8.32697 17.3742 8.21047 16.8938 8.21047C16.4134 8.21047 15.9912 8.32697 15.6272 8.55987C15.2633 8.77827 14.9794 9.09127 14.7756 9.49887C14.5718 9.90647 14.4699 10.3869 14.4699 10.9401ZM23.4398 10.7873C23.4398 9.66627 23.6654 8.68367 24.1167 7.83927C24.568 6.99497 25.1867 6.33987 25.9728 5.87397C26.7589 5.39357 27.6615 5.15337 28.6805 5.15337C29.5394 5.15337 30.2964 5.32807 30.9515 5.67747C31.6212 6.02687 32.0724 6.48547 32.3054 7.05317L31.9778 7.27157L32.2399 5.52467H35.2751V15.7441C35.2751 17.0252 35.0276 18.1316 34.5327 19.0633C34.0377 20.0095 33.3317 20.7374 32.4145 21.2469C31.512 21.7564 30.4347 22.0112 29.1827 22.0112C28.1346 22.0112 27.1884 21.8001 26.344 21.3779C25.5142 20.9703 24.8373 20.388 24.3132 19.631C23.8037 18.874 23.498 18.0006 23.3961 17.0106H26.8026C26.8317 17.6366 27.0792 18.117 27.545 18.4519C28.0254 18.7867 28.6368 18.9541 29.3793 18.9541C30.2091 18.9541 30.8496 18.7212 31.3009 18.2553C31.7522 17.804 31.9778 17.1999 31.9778 16.4429V14.1282L32.2835 14.4121C32.0506 14.9799 31.5993 15.4384 30.9297 15.7878C30.26 16.1372 29.4885 16.3119 28.615 16.3119C27.6105 16.3119 26.7152 16.079 25.9291 15.6131C25.1576 15.1473 24.5461 14.4995 24.0948 13.6697C23.6581 12.8399 23.4398 11.8791 23.4398 10.7873ZM26.8462 10.6999C26.8462 11.224 26.9554 11.6898 27.1738 12.0974C27.3922 12.5051 27.6833 12.8253 28.0473 13.0582C28.4112 13.2766 28.8115 13.3858 29.2483 13.3858C29.7723 13.3858 30.2309 13.2766 30.624 13.0582C31.0316 12.8253 31.3446 12.5051 31.5629 12.0974C31.7958 11.6898 31.9123 11.224 31.9123 10.6999C31.9123 10.1613 31.7958 9.70267 31.5629 9.32417C31.33 8.93117 31.0097 8.62537 30.6021 8.40707C30.2091 8.18867 29.7505 8.07947 29.2264 8.07947C28.7897 8.07947 28.3894 8.18867 28.0254 8.40707C27.6615 8.62537 27.3703 8.93117 27.152 9.32417C26.9481 9.71727 26.8462 10.1758 26.8462 10.6999ZM36.4736 10.9619C36.4736 9.81187 36.7138 8.80737 37.1942 7.94847C37.6746 7.07497 38.3515 6.39807 39.225 5.91767C40.0984 5.43727 41.1175 5.19707 42.2821 5.19707C43.4467 5.19707 44.4584 5.43727 45.3174 5.91767C46.1908 6.39807 46.8677 7.07497 47.3481 7.94847C47.8285 8.80737 48.0687 9.81187 48.0687 10.9619C48.0687 12.112 47.8285 13.1165 47.3481 13.9754C46.8677 14.8343 46.1908 15.5039 45.3174 15.9843C44.4584 16.4647 43.4467 16.7049 42.2821 16.7049C41.1175 16.7049 40.0984 16.4647 39.225 15.9843C38.3515 15.5039 37.6746 14.8343 37.1942 13.9754C36.7138 13.1165 36.4736 12.112 36.4736 10.9619ZM39.8582 10.9401C39.8582 11.4933 39.9601 11.981 40.1639 12.4032C40.3677 12.8108 40.6516 13.131 41.0156 13.364C41.3795 13.5823 41.8017 13.6915 42.2821 13.6915C42.7625 13.6915 43.1847 13.5823 43.5486 13.364C43.9125 13.131 44.1891 12.8108 44.3784 12.4032C44.5822 11.981 44.6841 11.4933 44.6841 10.9401C44.6841 10.3869 44.5822 9.90647 44.3784 9.49887C44.1891 9.09127 43.9125 8.77827 43.5486 8.55987C43.1847 8.32697 42.7625 8.21047 42.2821 8.21047C41.8017 8.21047 41.3795 8.32697 41.0156 8.55987C40.6516 8.77827 40.3677 9.09127 40.1639 9.49887C39.9601 9.90647 39.8582 10.3869 39.8582 10.9401ZM49.4832 16.4429V5.52467H52.8678V16.4429H49.4832ZM51.1864 3.82137C50.6478 3.82137 50.1892 3.63937 49.8107 3.27547C49.4468 2.89697 49.2648 2.43837 49.2648 1.89977C49.2648 1.36117 49.4468 0.90987 49.8107 0.54587C50.1892 0.18197 50.6478 0 51.1864 0C51.7105 0 52.1545 0.18197 52.5184 0.54587C52.8969 0.90987 53.0862 1.36117 53.0862 1.89977C53.0862 2.43837 52.8969 2.89697 52.5184 3.27547C52.1545 3.63937 51.7105 3.82137 51.1864 3.82137ZM55.0564 21.6837V5.52467H58.1358L58.3098 6.85667C58.6158 6.34717 59.1038 5.93957 59.7728 5.63377C60.4428 5.32807 61.1638 5.17527 61.9348 5.17527C62.9538 5.17527 63.8418 5.40087 64.5988 5.85217C65.3558 6.30347 65.9528 6.95127 66.3898 7.79567C66.8258 8.62537 67.0588 9.62987 67.0888 10.8091C67.1178 11.9591 66.9278 12.9855 66.5208 13.888C66.1128 14.776 65.5238 15.4748 64.7518 15.9843C63.9798 16.4939 63.0488 16.7486 61.9568 16.7486C61.1998 16.7486 60.4938 16.6176 59.8388 16.3556C59.1838 16.0935 58.6958 15.7587 58.3758 15.3511V21.6837H55.0564ZM58.4408 10.9838C58.4408 11.5224 58.5498 12.0028 58.7688 12.425C59.0018 12.8326 59.3148 13.1529 59.7078 13.3858C60.1148 13.6042 60.5808 13.7133 61.1048 13.7133C61.6438 13.7133 62.1028 13.5969 62.4808 13.364C62.8738 13.131 63.1728 12.8108 63.3758 12.4032C63.5948 11.9955 63.7038 11.5224 63.7038 10.9838C63.7038 10.4451 63.5948 9.97197 63.3758 9.56437C63.1728 9.15677 62.8738 8.83647 62.4808 8.60357C62.1028 8.37067 61.6438 8.25417 61.1048 8.25417C60.5808 8.25417 60.1148 8.37067 59.7078 8.60357C59.3148 8.82197 59.0018 9.13497 58.7688 9.54257C58.5498 9.95017 58.4408 10.4306 58.4408 10.9838ZM67.6648 12.9927H70.7008C70.7008 13.3712 70.8238 13.6697 71.0718 13.888C71.3338 14.1064 71.7118 14.2156 72.2068 14.2156C72.4978 14.2156 72.7388 14.1792 72.9278 14.1064C73.1318 14.0336 73.2848 13.9317 73.3858 13.8007C73.5028 13.6551 73.5608 13.495 73.5608 13.3203C73.5608 13.131 73.4958 12.9709 73.3648 12.8399C73.2478 12.7089 73.0438 12.607 72.7528 12.5342L70.8318 12.0319C69.7538 11.7408 68.9898 11.3113 68.5388 10.7436C68.0868 10.1758 67.8618 9.52797 67.8618 8.80007C67.8618 8.07217 68.0438 7.43897 68.4078 6.90037C68.7858 6.34717 69.2958 5.92497 69.9358 5.63377C70.5768 5.32807 71.2968 5.17527 72.0978 5.17527C73.3058 5.17527 74.2958 5.51007 75.0678 6.17977C75.8538 6.83477 76.2688 7.73007 76.3128 8.86557H73.2768C73.2918 8.48707 73.1828 8.18867 72.9498 7.97027C72.7168 7.73737 72.4108 7.62097 72.0328 7.62097C71.6978 7.62097 71.4208 7.70827 71.2028 7.88297C70.9988 8.04307 70.8968 8.26877 70.8968 8.55987C70.8968 8.83647 70.9988 9.04027 71.2028 9.17137C71.4068 9.28777 71.6828 9.38967 72.0328 9.47707L73.9758 9.95747C74.8788 10.1758 75.5628 10.5471 76.0288 11.0711C76.4948 11.5952 76.7268 12.2649 76.7268 13.0801C76.7268 14.201 76.3128 15.089 75.4828 15.7441C74.6528 16.3992 73.5758 16.7268 72.2508 16.7268C70.8828 16.7268 69.7828 16.3847 68.9538 15.7005C68.1378 15.0017 67.7088 14.0991 67.6648 12.9927ZM82.0928 16.7268C80.8118 16.7268 79.8218 16.3264 79.1228 15.5258C78.4248 14.7251 78.0748 13.6769 78.0748 12.3813V5.52467H81.4378V11.1585C81.4378 12.1775 81.6198 12.8617 81.9838 13.2111C82.3478 13.5605 82.8278 13.7352 83.4248 13.7352C84.1968 13.7352 84.7278 13.5168 85.0188 13.0801C85.3098 12.6434 85.4558 12.0174 85.4558 11.2021V5.52467H88.8188V16.4429H85.6528L85.4338 15.2201C85.0988 15.6713 84.6258 16.0353 84.0148 16.3119C83.4028 16.5885 82.7628 16.7268 82.0928 16.7268ZM94.3698 16.4429H90.9848V5.52467H94.1298L94.3698 7.40257L93.9988 7.00947C94.2898 6.45627 94.7268 6.01227 95.3088 5.67747C95.9058 5.32807 96.5458 5.15337 97.2308 5.15337C98.3078 5.15337 99.1518 5.39357 99.7638 5.87397C100.39 6.35437 100.841 6.98767 101.117 7.77377H100.593C100.768 6.98767 101.19 6.35437 101.86 5.87397C102.53 5.39357 103.33 5.15337 104.262 5.15337C105.674 5.15337 106.715 5.53187 107.385 6.28887C108.054 7.04587 108.389 8.05037 108.389 9.30237V16.4429H105.114V10.1322C105.114 9.44787 104.946 8.93837 104.611 8.60357C104.291 8.26877 103.862 8.10137 103.323 8.10137C103.003 8.10137 102.697 8.17417 102.406 8.31967C102.115 8.45067 101.874 8.69087 101.685 9.04027C101.496 9.37517 101.401 9.85557 101.401 10.4815V16.4429H98.0818V10.1322C98.0818 9.44787 97.9218 8.94567 97.6018 8.62537C97.2808 8.29057 96.8518 8.12317 96.3128 8.12317C95.9928 8.12317 95.6798 8.19597 95.3738 8.34157C95.0828 8.47257 94.8428 8.71277 94.6538 9.06217C94.4648 9.39697 94.3698 9.87007 94.3698 10.4815V16.4429Z" fill="#1B3D5B"/>
</svg>
