<svg width="33" height="32" viewBox="0 0 33 32" fill="none" xmlns="http://www.w3.org/2000/svg">
<path fill-rule="evenodd" clip-rule="evenodd" d="M27.0487 0.223775C27.7115 -0.0175687 28.4294 -0.0648365 29.1181 0.0875266C29.8068 0.23989 30.4377 0.585552 30.9366 1.08389C31.4355 1.58222 31.7817 2.21252 31.9345 2.90071C32.0873 3.5889 32.0403 4.30637 31.7991 4.96881L23.6248 29.4528C23.4259 30.0545 23.0759 30.5951 22.6082 31.0229C22.1404 31.4507 21.5707 31.7514 20.9534 31.8962C20.3376 32.0461 19.6934 32.0335 19.0839 31.8596C18.4745 31.6857 17.9207 31.3565 17.4769 30.9042L13.0901 26.5409L8.48377 28.9226C8.3072 29.0141 8.10979 29.058 7.91105 29.0499C7.71231 29.0419 7.51911 28.9822 7.35052 28.8767C7.18192 28.7712 7.04377 28.6236 6.94971 28.4485C6.85564 28.2733 6.80892 28.0767 6.81414 27.878L7.00397 20.6005L23.1171 8.90472C23.269 8.79441 23.3978 8.65527 23.496 8.49524C23.5941 8.33521 23.6598 8.15742 23.6892 7.97202C23.7186 7.78663 23.7112 7.59726 23.6674 7.41473C23.6236 7.23219 23.5442 7.06008 23.4338 6.9082C23.3235 6.75632 23.1842 6.62765 23.0241 6.52954C22.8639 6.43144 22.686 6.36581 22.5005 6.33642C22.315 6.30702 22.1255 6.31443 21.9429 6.35822C21.7602 6.40201 21.588 6.48132 21.436 6.59163L5.05073 18.4862L1.09394 14.532C0.6675 14.1058 0.353109 13.5808 0.178733 13.0037C0.00435628 12.4267 -0.0245988 11.8156 0.0944435 11.2247C0.214136 10.5787 0.503671 9.9761 0.933337 9.47883C1.363 8.98157 1.91733 8.6075 2.53943 8.39502H2.54629L27.0464 0.221489L27.0487 0.223775Z" fill="white"/>
</svg>
